<svg id="Calque_1" data-name="Calque 1" xmlns="http://www.w3.org/2000/svg" viewBox="0 0 486.33 453.74"><defs><style>.cls-1{fill:#0b0a0a;}.cls-2{fill:#f64229;}.cls-3{fill:#fbd410;}.cls-4{fill:#0a0b0d;}.cls-5{fill:#f8f7f2;}.cls-6{fill:#fad514;}.cls-7{fill:#4dbfe4;}.cls-8{fill:#0a0a0a;}.cls-9{fill:#0b0c0e;}.cls-10{fill:#110b0a;}.cls-11{fill:#f0452d;}.cls-12{fill:#4fbee1;}.cls-13{fill:#f3f1ed;}.cls-14{fill:#0f0909;}.cls-15{fill:#54c0e0;}.cls-16{fill:#101013;}.cls-17{fill:#e2f1ef;}.cls-18{fill:#dbddc0;}.cls-19{fill:#e9eacd;}.cls-20{fill:#1d0808;}.cls-21{fill:#f6d412;}.cls-22{fill:#c1d45a;}.cls-23{fill:#c1d35d;}.cls-24{fill:#c4d74c;}.cls-25{fill:#eff0d8;}.cls-26{fill:#bfcc7a;}.cls-27{fill:#18110b;}.cls-28{fill:#f4f09f;}.cls-29{fill:#f4ce1f;}.cls-30{fill:#252525;}</style></defs><title>logo</title><path class="cls-1" d="M241.67,235.44c12.82,1.6,12.82,1.58,14.72-11,2.58-17.13-1.07-32.29-13.67-44.83-4.77-4.75-9.5-9.59-13-15.42a36.59,36.59,0,0,1-3.94-9.06c-.51-1.82,0-3.38,1.89-4s3.28.38,3.77,2.22c2.25,8.35,8,14.34,13.76,20.26,8,8.22,14.77,17.16,16.94,28.8,1.83,9.79,1.12,19.55-1,29.18-.68,3.13.43,3.14,2.69,2.65a133.87,133.87,0,0,0,13.63-3.55c1.6-.53,2.06-1,1.23-2.63-6.5-12.58-.31-26.87,12.41-34.89,1-.61,2-1.15,3.22-1.87-5.35-7.92-10-16.15-12.63-25.33a65.46,65.46,0,0,1-2.6-16.15c-.07-2.16.49-4,3-4s3,1.83,3,4c.29,13.16,4.86,25,12.49,35.4s6.13,20.61,1.66,31.29c-.61,1.45-1.48,2.78-2.66,5,4.25-1.74,7-4.16,9.82-6.34a105.51,105.51,0,0,0,16.32-16c1-1.17,1.81-2.21,1.44-4-2.72-13.52,3.31-23.11,14.05-30.41a35.84,35.84,0,0,1,12.57-5.28c3.27-.72,5.09.38,5.14,3.62.2,12.9-4.22,28.56-20.53,35.2-5.74,2.34-9.14,6.33-13.48,11.16,3.8-.32,6.92-.58,10-.06a34.77,34.77,0,0,1,18.69,9.63c2.68,2.6,2.62,4.45-.45,6.47-12.79,8.38-28.15,9.58-40.81-1.63-.8-.71-1.32-2.28-3-1a82.66,82.66,0,0,1-13,7.92,111,111,0,0,1-14.34,6c5.56,3.07,10,6.49,13.25,11.21a48.2,48.2,0,0,1,3.51,5.87c1.79,3.62.86,5.49-3,6.41-15.26,3.68-29.62-2.62-37.08-16.48-1-1.89-2.09-2-3.89-1.95-27.19,1-51.53-6.86-72.27-24.56-20.57-17.55-32.65-39.92-35.92-66.87a28.83,28.83,0,0,1,6.1-21.81c2.11-2.73,4-5.55,4.85-9,.59-2.46.22-3.72-2.83-3.59a24.84,24.84,0,0,1-12.83-3c-7.76-4.13-10.86-11-11.52-19.38-.15-2,1-3,2.65-3.72,6.3-2.67,10-7.4,11.76-14,2.14-8,8.31-12.29,15.61-14.94,3.15-1.14,3.65-2.69,2.86-5.58a36.29,36.29,0,0,1-1.17-7.14c-.22-3.37,1.85-4.75,4.84-3.18a50.82,50.82,0,0,1,13.47,9.9,8.26,8.26,0,0,0,4.46,2.54,26.76,26.76,0,0,1,17.4,12c1.29,2,2.1,2,4,.69,17.12-12.42,35.25-14,54.22-4.61,1.9.93,3.19.57,4.87-.36,10.74-6,22.41-5.89,34.18-5a3,3,0,0,1,2.75,2.73c3.84,17.89,4.83,35.63-4.05,52.47-6.85,13-17.7,20.27-32.71,21.5,2.53,5.38,6.34,10.06,8.15,15.75-.75.09-1.85,1.84-1.79.88.28-5.08-3-2.26-4.83-2.44l-.2-.73.12-.77c.84-.24,2.42.46,2.38-.82s-1.6-.5-2.46-.73c.11-2.73-.7-4.67-3.9-4.56A26.68,26.68,0,0,0,246.49,134c-10.09-3.37-17.55-10.49-23.57-19.14-1.12-1.61-1.68-3.42.13-4.72s3.52-.52,4.79,1.37a44.57,44.57,0,0,0,18.42,16.11c15.59,7.19,32.39,2.45,41.86-11.85a41.28,41.28,0,0,0,6.59-17.43,39.63,39.63,0,0,1-8.67,8.19c-1.84,1.27-3.83,2-5.27-.29-1.26-2-.14-3.44,1.73-4.68A27.52,27.52,0,0,0,294.4,85.35c.48-1.8.47-2.55-1.85-2.75-9.35-.8-14.55-5.42-16.41-14.52-.41-2-1.38-1.32-2.37-1.08a27.92,27.92,0,0,0-12.24,5.86c-2.74,1-4.54-1.13-6.6-2.12-13.31-6.43-26.68-7.33-40.2-.76-11.3,5.49-19.64,14.12-25.78,24.88-3.73,6.54-7.32,13.24-7.85,21-4.75,16.2.06,36.73,19.51,43.8.83,1.58,1.14,3.11-.43,4.45s-2.85.48-4.26-.1a48.33,48.33,0,0,1-9.43-5.63l-5.1-5.2-1-1.33a43.34,43.34,0,0,1-6.76-21.14c-.76-20.3,6.88-37.38,20.07-52.34.78-.88,2.26-1.37,2-3-.46-2.91-7.13-9-10.41-9.48.12.22.24.43.36.64,1,2.05,3.32,4.32-.08,6.07-3,1.53-3.91-1.15-5-3.12A37.39,37.39,0,0,0,173.7,60l-3.14-3.19a10.94,10.94,0,0,0-4.46-3.33l1.35,8a2.53,2.53,0,0,0,.83,2.32c-1.18.36-.87,1.41-1,2.24-.51,2.71-.91,5.44-1.58,8.11a2.84,2.84,0,0,1-3.5,2.19c-1.88-.3-2.46-1.58-2.35-3.31a30.41,30.41,0,0,1,.35-4.13c.13-.65,1-1.15.18-1.92s-1.66-.15-2.43.17c-5.58,2.35-9.07,6.46-11.1,12.21s-4.63,11.07-7,16.73c1.93,1.38,5.38.09,6.73,3.1l0,1.44c-2.54,5-6.74.68-10.25,1.71,4.69,6.72,11.43,7.68,18.62,7.51,4.49-.11,5.53.82,5.92,5.35.55,6.37-2.16,11.54-5.78,16.48-2,2.8-4.6,5.49-4.11,9.44-1.54,1.8-1.41,3.95-1.29,6.09.83,14.56,5.88,27.77,12.92,40.34a110.13,110.13,0,0,0,16.59,20.9c-.58-4.74-1.25-9-.28-13.34a29.24,29.24,0,0,1,6.6-13.06c1.37-1.57,2.87-2.43,5-2,2.26,2.21,1.64,4.15-.33,6.23a20.42,20.42,0,0,0-5.46,17.55c.78,5.89,3.9,10.65,7.43,15.21.2,1.32-.73,3.08.52,3.86,1,.61,2-.56,2.56-1.66.89.09,1.56.41,1.58,1.45l-.07,1.7c-.39.22-1,.37-1.11.68-.15.51.36.79.88.81.84,0,1.67,0,2.51,0a7.53,7.53,0,0,1,3.58.8c2.6,1.34,5.26,2.77,8.38,2.34C220.83,232.57,231,235.23,241.67,235.44Zm41.51-15.56c.08,1.59.15,2.78,2.42,1.69a10.33,10.33,0,0,0,4-3.27,10.07,10.07,0,0,0,3.36-4.93c2.43-3.61,3.12-7.67,3-11.92.07-.71.45-1.63-.28-2-1.52-.81-1.79,1.34-3,1.46C286.45,203.82,282.25,212.21,283.18,219.89Zm54.12-1.63a18.37,18.37,0,0,0-18.94,0c-1.32.74-1.28.82-1.31,2.48a14.14,14.14,0,0,0,7.85,3.54,15.22,15.22,0,0,0,9.18.27,22.39,22.39,0,0,0,9.31-3.13C341.21,220.17,339.77,218.36,337.3,218.26Zm4.18-47.46a22.81,22.81,0,0,0-10.09,12c-1.14,2.92-2,5.84-.34,8.86,1.09,1.72,2.2.33,3.06-.14a26.45,26.45,0,0,0,14.33-20.7c0-1.17,1-2.34,0-3.67A19.59,19.59,0,0,0,341.47,170.8Zm-73.63,71.88a16.32,16.32,0,0,1-2.56-.4,1.44,1.44,0,0,0-1.66.48c-.57.66.13,1.13.41,1.62,3.94,6.9,16.35,11.65,23.8,9.07-1-1.73-2-3.5-3.74-4.61a17.08,17.08,0,0,0-9.39-6.14C272.56,242.22,270.1,240.84,267.84,242.68Z"/><path class="cls-2" d="M181.09,115.88c.53-7.78,4.12-14.48,7.85-21,6.14-10.76,14.48-19.4,25.78-24.88,13.53-6.57,26.89-5.66,40.2.76,2.05,1,3.86,3.13,6.6,2.12,1.74,6.82-1.23,13.93-7.81,18.72s-14.17,6.58-22,7.68l-10.57.08C218.3,96,216,96,214.64,99.49c-3.59,9.13-5.43,18.34-1.87,28.08,1.76,4.81,3.45,9.75,3.55,15-2.11,2-1.8,5.27-3.89,7.28-1.49,2.18-3.63,2.77-6.18,2.9a16,16,0,0,1-10.68-3.25C184.38,141.07,180.12,129.58,181.09,115.88ZM239.5,82c3,.49,5.42.59,5.74-2.34s-2.13-3.27-4.35-3.61c-6.48-1-10.61,1.73-12.29,8.28-.55,2.16-1.6,4.71,1.65,5.63,3,.86,3.6-1.51,4.05-3.68C235,83,236.77,81.35,239.5,82Z"/><path class="cls-3" d="M192,219.05c-3.53-4.56-6.65-9.32-7.43-15.21a20.42,20.42,0,0,1,5.46-17.55c2-2.08,2.59-4,.33-6.23a4.77,4.77,0,0,1,3.88-2.87c2.89,3.35,5.89,2.82,8.7-1.54,8.46,0,15,4.67,21,9.67a51.23,51.23,0,0,1,15.92,22.13c1.31,3.67,2.6,7.37,2.61,11.32,0,5.56.61,11.17-.81,16.66-10.67-.21-20.84-2.87-30.83-6.38-4.8-1.95-9.1-5-14.18-6.37,0-1-.69-1.36-1.58-1.45A7.85,7.85,0,0,0,192,219.05Z"/><path class="cls-4" d="M342.33,127.3c.53-6.07,1-12.15,1.61-18.22.52-5.51.32-11-1.85-16.12a6.6,6.6,0,0,1,.4-6.08c4.18-8.19,5.51-16.72,1.63-25.35-5.66-12.58-3.33-24,4.32-34.84.43-.61.78-1.27,1.55-2.51-6.89,1-12.45,3.2-16.19,8.67-1.24,1.82-2.57,3-4.63,1.82s-1.58-3.21-.43-5c6-9.22,18.51-12.53,27.53-11.33,2.81.37,3.52,2.61,1.7,5.12a85.12,85.12,0,0,0-8.37,13.15c-3,6.26-3.77,12.73-1,19.2,4.69,11.13,5.34,22.11-.44,33a3,3,0,0,0-.2,2.57c2.7,7.12,2.69,14.43,1.46,21.81-1.91,11.4.26,22.28,4.28,32.87,1.09,2.85.55,4.65-1.71,6.57-9.89,8.39-23.07,9.5-32.33,2.59a23.9,23.9,0,0,1-6.78-8.6c-1.74-3.39-3.27-6.88-5.07-10.23-2.3-4.29-5.6-7.55-10.4-9-1.71-.5-3.18-1.08-3.14-3.19s1.48-2.77,3.26-3c8.48,2.1,13.71,7.78,17.14,15.49a60.22,60.22,0,0,0,5.05,9.8c3.46,5,8.2,7.47,14.83,7.31a51.35,51.35,0,0,1-5.68-16.13c-.31-1.91-.14-3.7,2.09-4.26,2.58-.64,3.39,1.18,3.73,3.19a49.18,49.18,0,0,0,2.79,9.88c.32.8.59,1.73,1.78,1.62s1.15-1.13,1.24-2a22.13,22.13,0,0,1,2.2-8.43C344.67,134.12,343.62,130.76,342.33,127.3Z"/><path class="cls-5" d="M150.88,141.17c-.49-4,2.06-6.64,4.11-9.44,3.62-4.94,6.32-10.11,5.78-16.48-.39-4.53-1.43-5.46-5.92-5.35-7.19.17-13.93-.79-18.62-7.51,3.52-1,7.71,3.33,10.25-1.71,4.5,0,9,0,13.49-.07,1.19,0,2.62.33,3-1.41,4.31-1.53,8.24-3.74,10.66-7.71,5.55-9.13,4.37-18.34-.14-27.49l0-1.36.15-2.6a37.39,37.39,0,0,1,6.88,9.49c1.11,2,2,4.65,5,3.12,3.4-1.75,1.13-4,.08-6.07-.11-.22-.24-.43-.36-.64,3.28.5,9.95,6.57,10.41,9.48.26,1.61-1.22,2.1-2,3-13.19,15-20.84,32-20.07,52.34a43.34,43.34,0,0,0,6.76,21.14c-1.06,1.17-.72,2.64-.59,3.93.35,3.43-1,5-4.44,4.46-.22-4.29.45-8.55,0-12.88a14.16,14.16,0,0,0-7.82-11.5c-5.55-3-10.42-1.14-14.58,3.18C152.28,139.77,151.58,140.47,150.88,141.17Z"/><path class="cls-6" d="M150.88,141.17c.7-.71,1.4-1.4,2.09-2.12,4.16-4.32,9-6.19,14.58-3.18a14.16,14.16,0,0,1,7.82,11.5c.46,4.33-.21,8.59,0,12.88A65.71,65.71,0,0,1,167,182.37c-1.21,2.07-4.19,2.5-4.52,5.24-7-12.58-12.09-25.79-12.92-40.35C149.46,145.12,149.34,143,150.88,141.17Z"/><path class="cls-7" d="M342.33,127.3c1.29,3.46,2.34,6.82.29,10.48a22.13,22.13,0,0,0-2.2,8.43c-.09.84.07,1.86-1.24,2s-1.47-.82-1.78-1.62a49.18,49.18,0,0,1-2.79-9.88c-.34-2-1.15-3.83-3.73-3.19-2.23.56-2.4,2.35-2.09,4.26a51.35,51.35,0,0,0,5.68,16.13c-6.63.16-11.38-2.26-14.83-7.31a60.22,60.22,0,0,1-5.05-9.8c-3.42-7.7-8.66-13.38-17.14-15.49C311.67,112.12,330.08,109.39,342.33,127.3Z"/><path class="cls-8" d="M309.42,23.57c-3.81,6-5.36,12.53-3.76,19.61.46,2,.47,4-1.91,4.67-2.14.59-3.45-.79-3.76-2.78-.37-2.43-2.28-2.06-3.75-2.24a102.08,102.08,0,0,0-50.48,6.28c-.83.32-1.62.74-2.46,1-1.93.64-3.65.33-4.37-1.76s.56-3,2.24-3.77a104.49,104.49,0,0,1,26.3-7.35,101.54,101.54,0,0,1,29.24-.2c2.85.41,2.45-1.36,2.66-2.83A36,36,0,0,1,309.6,13.49l.16,8.78Z"/><path class="cls-9" d="M309.77,22.27l-.16-8.78c5-6.34,11.62-10.38,19.11-13.15,1.5-.55,2.71-.5,3.78.69s.91,2.5.09,3.83c-8.22,13.41-8.34,27.52-3.62,42.06,1.23,3.79.24,4.89-4,4.81a53.93,53.93,0,0,1-3.83-34.42c.5-2.47,1.33-4.87,2.2-8a21.73,21.73,0,0,0-6.09,5.44C313.54,16,312.3,19.79,309.77,22.27Z"/><path class="cls-10" d="M216.32,142.58c-.1-5.26-1.79-10.2-3.55-15-3.56-9.73-1.72-18.94,1.87-28.08C216,96,218.3,96,221.12,99.34l-.2,2a27.66,27.66,0,0,0-3.23,21.33c1.28,5.54,3.31,10.88,4.3,16.51,1.37,7.76-1.1,14.18-6.33,19.78-2.11,2.25-4.08,2.21-6-.28,0-3.42,3.14-5,4.46-7.62C216.13,148.56,216.24,145.57,216.32,142.58Z"/><path class="cls-11" d="M263.79,150.34l.2.73a63.73,63.73,0,0,1,2.25,6.82c1.7,7.94,3,15.94,1.3,24.08-1.48-.16-2.14-1.93-3.72-1.9-6.63-5.89-14.1-19.76-11.16-28,1.35-3.79,3.64-6.19,7.4-7.31C261.87,146.25,262.43,148.57,263.79,150.34Z"/><path class="cls-12" d="M317.27,14.75a21.73,21.73,0,0,1,6.09-5.44c-.87,3.11-1.7,5.52-2.2,8A53.93,53.93,0,0,0,325,51.73c-8.39,1.13-14.29-4.66-14.46-14.41a75.79,75.79,0,0,1,.73-8.32c1.86-3.64,2.54-7.84,5.32-11A4,4,0,0,0,317.27,14.75ZM319,32.63h.37v-6H319Z"/><path class="cls-13" d="M214.17,151.09c-1.32,2.64-4.47,4.2-4.46,7.62-3,.44-6.15-.06-9.12,1-19.45-7.07-24.25-27.6-19.51-43.8-1,13.7,3.29,25.19,14.49,33.62a16,16,0,0,0,10.68,3.25c2.55-.13,4.68-.73,6.18-2.9A1.8,1.8,0,0,0,214.17,151.09Z"/><path class="cls-14" d="M267.54,182c1.67-8.14.4-16.13-1.3-24.08a63.73,63.73,0,0,0-2.25-6.82c1.87.18,5.11-2.64,4.83,2.44-.05,1,1-.79,1.79-.88,4.18,11,3.88,22.38,2.55,33.81-.21,1.79-1.18,2.9-3,2.77-2.86-.21-2.81-2.41-2.77-4.51Z"/><path class="cls-15" d="M325.38,73.45c2.42,2.06.59,6.74.25,9.41-.09.71-.22,1.42-.36,2.12A1.77,1.77,0,0,1,322.46,86a13,13,0,0,1-2.16-2.63A24.14,24.14,0,0,1,316,71.87c-.3-2.54-.13-4.83,3.53-3.13.47.22,1-.13,1.51-.17,0,.11.18.13.34.08s.24.23.38.35c.34.3.71-.18.9.39s.74.58,1,.93.23.93.6,1c.56.15.49.9.72,1.43l.12.14c.12.27-.05.24.18.42Z"/><path class="cls-16" d="M226.83,58.17c-1.72-.24-2.76-1.14-2.79-2.95s4.7-5.31,7.09-5.2a2.76,2.76,0,0,1,2.82,2.91C234.06,54.62,229,58.29,226.83,58.17Z"/><path class="cls-9" d="M279.86,138.53c.91-1.85-.45-5.69,3.75-5.85,2.26-.09,3.09,1.62,2.56,3.64-.66,2.53.56,6.46-3.9,6.51C280,142.86,279.55,141,279.86,138.53Z"/><path class="cls-16" d="M271.34,198c-1.24,2,.11,6.2-4.32,6.1a2.56,2.56,0,0,1-2.41-3.54c.85-2.5,0-6.48,4.29-6.46C270.74,194.1,271.63,195.74,271.34,198Z"/><path class="cls-16" d="M203,175.66c-2.8,4.35-5.81,4.88-8.7,1.54.17-3.54,2.88-4.41,5.57-4.83C202,172,202.78,173.75,203,175.66Z"/><path class="cls-17" d="M317.27,14.75a4,4,0,0,1-.68,3.2c-2.78,3.2-3.46,7.4-5.32,11l-1.85-5.42.35-1.3C312.3,19.79,313.54,16,317.27,14.75Z"/><path class="cls-18" d="M220.93,101.37l.2-2,10.57-.08c-1.83,2.8-4.64,2.71-7.48,2.51C223.12,101.69,222,101.51,220.93,101.37Z"/><path class="cls-5" d="M181.37,153.2l5.1,5.2C181.23,160.78,181.16,160.7,181.37,153.2Z"/><path class="cls-19" d="M267.54,182l-.13,2.73c-4,.61-3.69-2.08-3.59-4.63C265.4,180,266.06,181.82,267.54,182Z"/><path class="cls-20" d="M263.79,150.34c-1.36-1.78-1.92-4.09-3.73-5.57l-.14-1.31c3.21-.11,4,1.83,3.9,4.56l.08,1.55Z"/><path class="cls-21" d="M173.53,64c4.51,9.14,5.69,18.36.14,27.49-2.42,4-6.35,6.19-10.66,7.71a97,97,0,0,1-16.49,0c-1.36-3-4.8-1.73-6.73-3.1,2.41-5.66,5-11.08,7-16.73s5.52-9.86,11.1-12.21c.77-.32,1.54-1,2.43-.17s0,1.27-.18,1.92a30.41,30.41,0,0,0-.35,4.13c-.11,1.73.47,3,2.35,3.31a2.84,2.84,0,0,0,3.5-2.19c.67-2.67,1.07-5.4,1.58-8.1a2.07,2.07,0,0,0,1-2.25,2.53,2.53,0,0,1-.83-2.32c.46-1.6-.47-3.44.79-5.24l1.41,2.35c.79,1.32,2.52,2,2.64,3.77-.52.17-1.46.13-1.22.88C171.46,64.5,172.68,63.81,173.53,64Zm-4.45,10.69c-.43.22-1.07.33-1.25.68-1.93,3.72,1,8.13-1.65,11.85-.4.55.71,1.19,1.54,1.13s1-.36,1.06-1.19c0-3.19,2.1-6.27.33-9.58a2.82,2.82,0,0,1,0-2.89c2.1-1.7,3.35-3.68,2.64-6.95A7.56,7.56,0,0,0,169.08,74.69Zm-3.93,9.46C164.67,81.91,163,81.27,161,81c-6.28-.74-10.65,3.28-10.9,10.08-.06,1.64-.22,3.46,2.17,3.62,2.12.15,2.85-1.12,3-3,.17-2.15.3-4.38,3-5,.19,1.52,1.26,2.24,2.43,2.92,1.1-1,.53-2.21.75-3.24l.91.09C164.79,87.45,165.14,86,165.15,84.16Z"/><path class="cls-22" d="M348.44,170.78a26.45,26.45,0,0,1-14.33,20.7c-.87.47-2,1.86-3.06.14,1.17-8,5.92-13.91,11.35-19.43a24.3,24.3,0,0,0,3.62-2.42C347.82,168.05,347.78,170.12,348.44,170.78Z"/><path class="cls-23" d="M284.09,248.84c1.77,1.11,2.72,2.88,3.74,4.61-7.46,2.58-19.86-2.17-23.8-9.07-.28-.49-1-1-.41-1.62a1.44,1.44,0,0,1,1.66-.48,16.44,16.44,0,0,0,2.56.4c.8-.38,1.39.2,2.09.38C274.91,244.37,279.21,247.31,284.09,248.84Z"/><path class="cls-24" d="M292.7,200.89c1.19-.11,1.47-2.26,3-1.46.73.39.35,1.31.28,2-1.62,1.22-1.61,3-1.63,4.77,0,1.18.39,2.66-1.5,2.91-.18-.93-.14-2.13-1.31-2.28-.38,0-1.37,1.15-1.26,1.53.38,1.29,1.66.55,2.55.76l.13,4.23a10.08,10.08,0,0,1-3.36,4.93c-3.48.36-3.13-2.93-4.43-4.64l.2-1.46c1.39,0,2.12,2.46,4.13.86-.77-1-1.22-2.29-2.83-2.42.29-2.5,2-4.19,3.49-6C291.11,203.46,292.92,202.88,292.7,200.89Z"/><path class="cls-25" d="M342.39,172.18C337,177.7,332.21,183.61,331,191.62c-1.69-3-.8-5.94.34-8.86a22.81,22.81,0,0,1,10.09-12A1.38,1.38,0,0,1,342.39,172.18Z"/><path class="cls-24" d="M334.08,224.58a15.22,15.22,0,0,1-9.18-.27c-.66-3.78,2.41-2.4,4.08-2.94s4.12,1.31,5.12-1.56c.63,0,1.27,0,1.9,0,1.09.08,2.48-.22,2.55,1.48s-1.32,1.56-2.42,1.6S334.14,223.25,334.08,224.58Z"/><path class="cls-23" d="M334.1,219.81c-1,2.87-3.42,1-5.12,1.56s-4.74-.84-4.08,2.94a14.14,14.14,0,0,1-7.85-3.54,5.09,5.09,0,0,1,4.82-2.31c.38,1.88,1.9,1.34,3.07,1.36,3.05.05,6.11,0,9.16,0Z"/><path class="cls-19" d="M321.87,218.46a5.09,5.09,0,0,0-4.82,2.31c0-1.65,0-1.73,1.31-2.48a18.37,18.37,0,0,1,18.94,0l-3.23.13A70.58,70.58,0,0,0,321.87,218.46Z"/><path class="cls-18" d="M285.35,212.21l-.2,1.46c-1.47,1.82-1.08,4.22-2,6.22-.93-7.68,3.27-16.07,9.52-19,.22,2-1.59,2.58-2.56,3.76-1.47,1.81-3.2,3.5-3.49,6A1.26,1.26,0,0,0,285.35,212.21Z"/><path class="cls-19" d="M284.09,248.84c-4.88-1.53-9.18-4.47-14.16-5.77-.7-.19-1.3-.76-2.09-.38,2.27-1.84,4.73-.46,6.86,0A17.08,17.08,0,0,1,284.09,248.84Z"/><path class="cls-23" d="M283.18,219.89c.89-2,.5-4.41,2-6.22,1.3,1.71,1,5,4.43,4.64a10.34,10.34,0,0,1-4,3.27C283.33,222.66,283.26,221.48,283.18,219.89Z"/><path class="cls-26" d="M334.07,218.39l3.23-.13c2.47.1,3.91,1.91,6.1,3.19a22.4,22.4,0,0,1-9.31,3.13c.05-1.33.9-1.63,2-1.67s2.49.13,2.42-1.6-1.46-1.4-2.55-1.48c-.63,0-1.26,0-1.9,0h0Z"/><path class="cls-27" d="M196.67,222.7c5.07,1.35,9.37,4.42,14.18,6.37-3.13.43-5.78-1-8.38-2.34a7.53,7.53,0,0,0-3.58-.8c-.08-1.52-1.18-1.53-2.28-1.53Z"/><path class="cls-28" d="M146.51,99.24a97,97,0,0,0,16.49,0c-.42,1.74-1.85,1.4-3,1.41-4.5.05-9,0-13.49.07Z"/><path class="cls-18" d="M342.39,172.18a1.38,1.38,0,0,0-.92-1.38,19.59,19.59,0,0,1,7-3.69c.94,1.33,0,2.49,0,3.67-.66-.66-.62-2.73-2.42-1A24.3,24.3,0,0,1,342.39,172.18Z"/><path class="cls-23" d="M292.84,209.13c1.88-.25,1.49-1.73,1.5-2.91,0-1.78,0-3.54,1.63-4.77.1,4.25-.59,8.31-3,11.92l-.13-4.23Z"/><path class="cls-23" d="M169.65,58.64l-1.41-2.35c-1.26,1.8-.32,3.64-.79,5.24l-1.35-8a10.94,10.94,0,0,1,4.46,3.33A2.3,2.3,0,0,0,169.65,58.64Z"/><path class="cls-25" d="M169.65,58.64a2.3,2.3,0,0,1,.91-1.78L173.7,60l-.15,2.6-1.25-.24C172.17,60.62,170.45,60,169.65,58.64Z"/><path class="cls-27" d="M192,219.05a7.85,7.85,0,0,1,3.08,2.19c-.53,1.11-1.58,2.28-2.56,1.66C191.29,222.13,192.22,220.37,192,219.05Z"/><path class="cls-10" d="M196.6,224.4c1.1,0,2.2,0,2.28,1.53-.84,0-1.67,0-2.51,0-.52,0-1-.29-.88-.81C195.58,224.77,196.21,224.62,196.6,224.4Z"/><path class="cls-14" d="M263.91,149.57l-.08-1.55c.86.23,2.43-.51,2.46.73S264.76,149.33,263.91,149.57Z"/><path class="cls-23" d="M168.29,63.85a2.07,2.07,0,0,1-1,2.25C167.42,65.26,167.11,64.21,168.29,63.85Z"/><path class="cls-20" d="M239.5,82c-2.74-.64-4.5,1-5.19,4.27-.46,2.17-1,4.54-4.05,3.68-3.26-.93-2.21-3.47-1.65-5.63,1.67-6.56,5.81-9.29,12.29-8.28,2.22.35,4.66.71,4.35,3.61S242.51,82.48,239.5,82Z"/><path class="cls-19" d="M214.17,151.09a1.8,1.8,0,0,1-1.74-1.24c2.09-2,1.78-5.29,3.89-7.28C216.24,145.57,216.13,148.56,214.17,151.09Z"/><path class="cls-29" d="M172.29,62.41l1.25.24q0,.68,0,1.36c-.85-.19-2.07.5-2.45-.71C170.83,62.53,171.78,62.58,172.29,62.41Z"/><path class="cls-15" d="M319,32.63v-6h.37v6Z"/><path class="cls-27" d="M162.41,86.5l-.91-.09c-1.1-.25-2.2-.6-3.17.32-2.75.59-2.88,2.82-3,5-.15,1.91-.88,3.17-3,3-2.39-.17-2.23-2-2.17-3.62.24-6.81,4.62-10.82,10.9-10.08,2,.24,3.67.88,4.15,3.13A5,5,0,0,1,162.41,86.5Z"/><path class="cls-29" d="M169.08,74.7a2.82,2.82,0,0,0,0,2.89c1.77,3.31-.29,6.39-.33,9.58,0,.83-.36,1.15-1.06,1.19s-1.94-.58-1.54-1.13c2.68-3.72-.28-8.13,1.65-11.85.18-.35.82-.46,1.25-.68Z"/><path class="cls-29" d="M169.08,74.69a7.56,7.56,0,0,1,2.64-6.94c.71,3.27-.54,5.25-2.64,6.95Z"/><path class="cls-29" d="M158.32,86.74c1-.93,2.08-.58,3.17-.32-.22,1,.35,2.23-.75,3.24C159.58,89,158.51,88.26,158.32,86.74Z"/><path class="cls-29" d="M162.41,86.5a5,5,0,0,0,2.74-2.34C165.14,86,164.79,87.45,162.41,86.5Z"/><path class="cls-23" d="M285.35,212.21a1.26,1.26,0,0,1,1.3-1.56c1.61.13,2.06,1.41,2.83,2.42C287.47,214.67,286.74,212.23,285.35,212.21Z"/><path class="cls-23" d="M292.82,209.15c-.89-.21-2.17.52-2.55-.76-.11-.38.88-1.58,1.26-1.53,1.17.15,1.14,1.35,1.31,2.28Z"/><path class="cls-24" d="M334.07,218.39l0,1.42c-3.05,0-6.11.05-9.16,0-1.17,0-2.69.52-3.07-1.36A70.62,70.62,0,0,1,334.07,218.39Z"/><path class="cls-16" d="M321.19,68.8l-.43-.32c-.4-.29-.71-.71-1.09-1a8.45,8.45,0,0,1-1.52-1.25c-.73-1-.27-2,.42-2.81,2.43-2.9,4.68,0,6.49,1.3,5.92,4.4,8.37,15.28,5.12,22.19-1.43,3-3.41,2.44-5.36.41.25-1.35.57-2.69.74-4.06a30.74,30.74,0,0,0,.5-5.07,17.3,17.3,0,0,0-1.21-4.69,1.92,1.92,0,0,0-.25-.55c-.08-.11-.19-.21-.27-.33a2,2,0,0,1-.21-.58,3.77,3.77,0,0,0-1-1.68,7.51,7.51,0,0,0-.75-.62Z"/><path class="cls-15" d="M324.09,73.12"/><path class="cls-23" d="M3.67,404a1.34,1.34,0,0,1-1.28-.67,1.71,1.71,0,0,1-.22-1.28l27-100.35a1.42,1.42,0,0,1,1.5-1.2,1.51,1.51,0,0,1,1.65,1.2L59.47,402.08a1.21,1.21,0,0,1-.15,1.28A1.51,1.51,0,0,1,58,404a1.41,1.41,0,0,1-1.5-1.2L45.82,363.68H15.67L5.17,402.83A1.42,1.42,0,0,1,3.67,404Zm12.9-43.5h28.5l-14.25-52.8Z"/><path class="cls-23" d="M96.22,404a1.33,1.33,0,0,1-1.5-1.5l6.9-100.5a1.33,1.33,0,0,1,1.5-1.5,1.87,1.87,0,0,1,1.35.6l18.75,16.8q2.7,2.4,4.8,4.65,2.1-2.25,4.8-4.65l18.75-16.8a1.87,1.87,0,0,1,1.35-.6,1.33,1.33,0,0,1,1.5,1.5l6.9,100.5a1.33,1.33,0,0,1-1.5,1.5c-1.1,0-1.65-.5-1.65-1.5l-6.6-97-16.8,14.85a50.71,50.71,0,0,0-4.65,4.65,26.46,26.46,0,0,1,4.27,7.2,20.22,20.22,0,0,1,1.28,7,18.36,18.36,0,0,1-1.42,7.35A64.91,64.91,0,0,1,131,353q-.75,1.35-1.2,2.25a42.46,42.46,0,0,1,2.63,6.75,29.78,29.78,0,0,1,1.13,8.55,19.15,19.15,0,0,1-1.5,7.58q-1.5,3.53-4,3.53t-4-3.53a19.12,19.12,0,0,1-1.5-7.58A29.78,29.78,0,0,1,123.6,362a42.28,42.28,0,0,1,2.63-6.75q-.45-.9-1.2-2.25a64.28,64.28,0,0,1-3.22-6.45,18.31,18.31,0,0,1-1.42-7.35q0-7.2,5.55-14.25a51.11,51.11,0,0,0-4.65-4.65l-16.8-14.85-6.6,97Q97.87,404,96.22,404Zm31.5-52.65.3.6.3-.6q1.65-3,2.93-5.92a15.45,15.45,0,0,0,1.27-6.22q0-5.85-4.5-11.85-4.5,6-4.5,11.85a15.4,15.4,0,0,0,1.28,6.22Q126.07,348.38,127.72,351.38Zm-2.1,19.2a16.42,16.42,0,0,0,.75,5q.75,2.4,1.65,2.85.75-.45,1.58-2.85a15.14,15.14,0,0,0,.83-5,27.4,27.4,0,0,0-.67-6.3,36.24,36.24,0,0,0-1.73-5.4,36,36,0,0,0-1.72,5.4A27.35,27.35,0,0,0,125.62,370.58Z"/><path class="cls-23" d="M204.67,404a1.33,1.33,0,0,1-1.5-1.5V302a1.33,1.33,0,0,1,1.5-1.5c1.1,0,1.65.5,1.65,1.5v100.5Q206.32,404,204.67,404Z"/><path class="cls-7" d="M249.67,404a1.33,1.33,0,0,1-1.5-1.5l6.9-100.5a1.33,1.33,0,0,1,1.5-1.5,1.87,1.87,0,0,1,1.35.6l18.75,16.8q2.7,2.4,4.8,4.65,2.1-2.25,4.8-4.65L305,301.13a1.87,1.87,0,0,1,1.35-.6,1.33,1.33,0,0,1,1.5,1.5l6.9,100.5a1.33,1.33,0,0,1-1.5,1.5c-1.1,0-1.65-.5-1.65-1.5l-6.6-97-16.8,14.85a50.71,50.71,0,0,0-4.65,4.65,26.46,26.46,0,0,1,4.27,7.2,20.22,20.22,0,0,1,1.28,7,18.36,18.36,0,0,1-1.42,7.35,64.91,64.91,0,0,1-3.23,6.45q-.75,1.35-1.2,2.25A42.46,42.46,0,0,1,285.9,362a29.78,29.78,0,0,1,1.13,8.55,19.15,19.15,0,0,1-1.5,7.58q-1.5,3.53-4,3.53t-4-3.53a19.12,19.12,0,0,1-1.5-7.58A29.78,29.78,0,0,1,277,362a42.28,42.28,0,0,1,2.63-6.75q-.45-.9-1.2-2.25a64.28,64.28,0,0,1-3.22-6.45,18.31,18.31,0,0,1-1.42-7.35q0-7.2,5.55-14.25a51.11,51.11,0,0,0-4.65-4.65l-16.8-14.85-6.6,97Q251.32,404,249.67,404Zm31.5-52.65.3.6.3-.6q1.65-3,2.93-5.92a15.45,15.45,0,0,0,1.27-6.22q0-5.85-4.5-11.85-4.5,6-4.5,11.85a15.4,15.4,0,0,0,1.28,6.22Q279.52,348.38,281.17,351.38Zm-2.1,19.2a16.42,16.42,0,0,0,.75,5q.75,2.4,1.65,2.85.75-.45,1.58-2.85a15.14,15.14,0,0,0,.83-5,27.4,27.4,0,0,0-.67-6.3,36.24,36.24,0,0,0-1.73-5.4,36,36,0,0,0-1.72,5.4A27.35,27.35,0,0,0,279.07,370.58Z"/><path class="cls-7" d="M351.52,404a1.34,1.34,0,0,1-1.28-.67,1.71,1.71,0,0,1-.22-1.28l27-100.35a1.42,1.42,0,0,1,1.5-1.2,1.51,1.51,0,0,1,1.65,1.2l27.15,100.35a1.21,1.21,0,0,1-.15,1.28,1.51,1.51,0,0,1-1.35.67,1.41,1.41,0,0,1-1.5-1.2l-10.65-39.15H363.52L353,402.83A1.42,1.42,0,0,1,351.52,404Zm12.9-43.5h28.5l-14.25-52.8Z"/><path class="cls-7" d="M446.32,404a1.33,1.33,0,0,1-1.5-1.5V302a1.33,1.33,0,0,1,1.5-1.5c1.1,0,1.65.5,1.65,1.5v98.85h33.9a1.33,1.33,0,0,1,1.5,1.5q0,1.65-1.5,1.65Z"/><path class="cls-30" d="M18.9,448.46H17.71a.52.52,0,0,1-.34-.11.75.75,0,0,1-.21-.29l-2.5-6.17H4.23l-2.49,6.17a.64.64,0,0,1-.21.29.56.56,0,0,1-.36.12H0l8.69-21.22h1.53ZM4.69,440.75h9.51L9.87,430q-.11-.25-.21-.58t-.21-.68q-.1.36-.21.68T9,430Z"/><path class="cls-30" d="M29.76,435.39a.35.35,0,0,1-.33.21.81.81,0,0,1-.43-.19,7.14,7.14,0,0,0-.69-.42,5.64,5.64,0,0,0-1.05-.42,5.34,5.34,0,0,0-1.52-.19,4.49,4.49,0,0,0-1.48.23,3.65,3.65,0,0,0-1.14.62,2.81,2.81,0,0,0-.74.9,2.37,2.37,0,0,0-.26,1.08,1.85,1.85,0,0,0,.36,1.17,3.1,3.1,0,0,0,.94.79,7.31,7.31,0,0,0,1.33.57l1.52.48q.78.24,1.52.53a5.74,5.74,0,0,1,1.33.73,3.43,3.43,0,0,1,.94,1.07,3,3,0,0,1,.36,1.53,4.65,4.65,0,0,1-.35,1.82,4.14,4.14,0,0,1-1,1.46,4.89,4.89,0,0,1-1.64,1,6.38,6.38,0,0,1-2.22.36,6.7,6.7,0,0,1-2.71-.5,7.62,7.62,0,0,1-2-1.31l.35-.51a.58.58,0,0,1,.17-.18.46.46,0,0,1,.25-.06.82.82,0,0,1,.48.24,5.94,5.94,0,0,0,.74.52,6.19,6.19,0,0,0,1.14.52,5.13,5.13,0,0,0,1.69.24,4.85,4.85,0,0,0,1.67-.26,3.47,3.47,0,0,0,1.2-.71,3,3,0,0,0,.73-1.06,3.36,3.36,0,0,0,.25-1.28,2.06,2.06,0,0,0-.36-1.25,3.09,3.09,0,0,0-.94-.84,6.64,6.64,0,0,0-1.33-.58l-1.53-.48q-.79-.24-1.53-.52a5.54,5.54,0,0,1-1.33-.72,3.47,3.47,0,0,1-.95-1.06,3.06,3.06,0,0,1-.36-1.55,3.56,3.56,0,0,1,.34-1.53,3.9,3.9,0,0,1,1-1.29,4.82,4.82,0,0,1,1.55-.88,6,6,0,0,1,2.06-.33,6.89,6.89,0,0,1,2.42.4,5.91,5.91,0,0,1,1.94,1.21Z"/><path class="cls-30" d="M42.66,435.39a.35.35,0,0,1-.33.21.81.81,0,0,1-.43-.19,7.14,7.14,0,0,0-.69-.42,5.64,5.64,0,0,0-1.05-.42,5.34,5.34,0,0,0-1.52-.19,4.49,4.49,0,0,0-1.48.23,3.65,3.65,0,0,0-1.14.62,2.81,2.81,0,0,0-.74.9,2.37,2.37,0,0,0-.26,1.08,1.85,1.85,0,0,0,.36,1.17,3.1,3.1,0,0,0,.94.79,7.31,7.31,0,0,0,1.33.57l1.52.48q.78.24,1.52.53a5.74,5.74,0,0,1,1.33.73,3.43,3.43,0,0,1,.94,1.07,3,3,0,0,1,.36,1.53,4.65,4.65,0,0,1-.35,1.82,4.14,4.14,0,0,1-1,1.46,4.89,4.89,0,0,1-1.64,1,6.38,6.38,0,0,1-2.22.36,6.7,6.7,0,0,1-2.71-.5,7.62,7.62,0,0,1-2-1.31l.35-.51a.58.58,0,0,1,.17-.18.46.46,0,0,1,.25-.06.82.82,0,0,1,.48.24,5.94,5.94,0,0,0,.74.52,6.19,6.19,0,0,0,1.14.52,5.13,5.13,0,0,0,1.69.24,4.85,4.85,0,0,0,1.67-.26,3.47,3.47,0,0,0,1.2-.71,3,3,0,0,0,.73-1.06,3.36,3.36,0,0,0,.25-1.28,2.06,2.06,0,0,0-.36-1.25,3.09,3.09,0,0,0-.94-.84,6.64,6.64,0,0,0-1.33-.58l-1.53-.48q-.79-.24-1.53-.52a5.54,5.54,0,0,1-1.33-.72,3.47,3.47,0,0,1-.95-1.06,3.06,3.06,0,0,1-.36-1.55A3.56,3.56,0,0,1,34,435.8a3.9,3.9,0,0,1,1-1.29,4.82,4.82,0,0,1,1.55-.88,6,6,0,0,1,2.06-.33,6.89,6.89,0,0,1,2.42.4A5.91,5.91,0,0,1,43,434.9Z"/><path class="cls-30" d="M53,433.29a7.17,7.17,0,0,1,2.87.55A5.87,5.87,0,0,1,58,435.39a6.89,6.89,0,0,1,1.33,2.42,11.2,11.2,0,0,1,0,6.34A6.89,6.89,0,0,1,58,446.57a5.78,5.78,0,0,1-2.14,1.54,7.91,7.91,0,0,1-5.74,0A5.85,5.85,0,0,1,48,446.57a6.82,6.82,0,0,1-1.33-2.42,11.2,11.2,0,0,1,0-6.34A6.82,6.82,0,0,1,48,435.39a5.94,5.94,0,0,1,2.15-1.55A7.17,7.17,0,0,1,53,433.29Zm0,14.24a5.54,5.54,0,0,0,2.33-.46A4.41,4.41,0,0,0,57,445.76a5.78,5.78,0,0,0,1-2.06,11.24,11.24,0,0,0,0-5.41,5.86,5.86,0,0,0-1-2.08,4.46,4.46,0,0,0-1.67-1.33,6.08,6.08,0,0,0-4.66,0A4.45,4.45,0,0,0,49,436.21a6,6,0,0,0-1,2.08,11,11,0,0,0,0,5.41,5.87,5.87,0,0,0,1,2.06,4.4,4.4,0,0,0,1.67,1.31A5.53,5.53,0,0,0,53,447.53Z"/><path class="cls-30" d="M73.39,435.53l-.14.13a.3.3,0,0,1-.19.05.78.78,0,0,1-.41-.2,5.42,5.42,0,0,0-.7-.44,5.92,5.92,0,0,0-1.09-.44,6.08,6.08,0,0,0-3.87.26,4.53,4.53,0,0,0-1.68,1.31,6,6,0,0,0-1,2.07,10.65,10.65,0,0,0,0,5.52,5.93,5.93,0,0,0,1,2A4.43,4.43,0,0,0,67,447.09a5.1,5.1,0,0,0,2.13.44,5.52,5.52,0,0,0,1.81-.25,5.88,5.88,0,0,0,1.2-.56,5.36,5.36,0,0,0,.75-.55.78.78,0,0,1,.44-.25.35.35,0,0,1,.3.15l.39.48a4.37,4.37,0,0,1-.87.84,5.9,5.9,0,0,1-1.19.67,7.22,7.22,0,0,1-1.43.44,8,8,0,0,1-1.61.16,6.4,6.4,0,0,1-2.6-.52,5.65,5.65,0,0,1-2-1.5,7,7,0,0,1-1.32-2.41,11.19,11.19,0,0,1,0-6.36,7,7,0,0,1,1.31-2.43,5.88,5.88,0,0,1,2.11-1.58,7,7,0,0,1,2.87-.56,6.78,6.78,0,0,1,2.59.46,6.36,6.36,0,0,1,2,1.26Z"/><path class="cls-30" d="M79.69,428.39a1.14,1.14,0,0,1-.11.5,1.5,1.5,0,0,1-.29.41,1.35,1.35,0,0,1-.42.29,1.29,1.29,0,0,1-1,0,1.34,1.34,0,0,1-.42-.29,1.38,1.38,0,0,1-.29-.41,1.21,1.21,0,0,1-.1-.5,1.35,1.35,0,0,1,.39-.94,1.35,1.35,0,0,1,.42-.29,1.29,1.29,0,0,1,1,0,1.37,1.37,0,0,1,.42.29,1.44,1.44,0,0,1,.29.43A1.24,1.24,0,0,1,79.69,428.39Zm-.63,5.15v14.92H77.64V433.53Z"/><path class="cls-30" d="M93.87,448.46a.51.51,0,0,1-.56-.42l-.21-1.91a15.43,15.43,0,0,1-1.22,1.08,7.35,7.35,0,0,1-1.27.81,6.23,6.23,0,0,1-1.43.5,7.62,7.62,0,0,1-1.68.17,4.94,4.94,0,0,1-1.49-.23,3.66,3.66,0,0,1-1.27-.69,3.39,3.39,0,0,1-.89-1.19,4.13,4.13,0,0,1-.34-1.75,3.1,3.1,0,0,1,.54-1.75,4.44,4.44,0,0,1,1.69-1.41,11.17,11.17,0,0,1,3-1A25.67,25.67,0,0,1,93,440.3v-1.56a5,5,0,0,0-.89-3.19,3.18,3.18,0,0,0-2.65-1.12,5,5,0,0,0-1.84.3,6.55,6.55,0,0,0-1.28.66,8.13,8.13,0,0,0-.85.66.93.93,0,0,1-.56.3.48.48,0,0,1-.45-.27l-.25-.43a8.68,8.68,0,0,1,2.46-1.77,6.87,6.87,0,0,1,2.93-.6,5.34,5.34,0,0,1,2.1.38,3.87,3.87,0,0,1,1.49,1.1,4.79,4.79,0,0,1,.89,1.72,7.94,7.94,0,0,1,.3,2.26v9.72Zm-6-.79a6.4,6.4,0,0,0,1.6-.19,5.89,5.89,0,0,0,1.35-.53,6.58,6.58,0,0,0,1.16-.8q.54-.47,1.06-1v-3.88a26.63,26.63,0,0,0-3.67.32,10.61,10.61,0,0,0-2.53.71,3.71,3.71,0,0,0-1.47,1.07,2.28,2.28,0,0,0-.47,1.42,3.12,3.12,0,0,0,.25,1.3,2.49,2.49,0,0,0,1.6,1.42A3.82,3.82,0,0,0,87.87,447.66Z"/><path class="cls-30" d="M103,448.7a3.18,3.18,0,0,1-2.35-.84,3.54,3.54,0,0,1-.84-2.6v-10.2H97.66a.4.4,0,0,1-.27-.09.32.32,0,0,1-.1-.25v-.55l2.55-.18.36-5.34a.41.41,0,0,1,.11-.24.33.33,0,0,1,.26-.11h.67V434h4.69v1.07h-4.69v10.13a3.16,3.16,0,0,0,.16,1.06,2,2,0,0,0,.44.73,1.7,1.7,0,0,0,.65.42,2.35,2.35,0,0,0,.81.14,2.47,2.47,0,0,0,.93-.16,3.82,3.82,0,0,0,.67-.34,4.43,4.43,0,0,0,.47-.34.51.51,0,0,1,.28-.16.33.33,0,0,1,.24.15l.39.63a4.16,4.16,0,0,1-1.45,1A4.52,4.52,0,0,1,103,448.7Z"/><path class="cls-30" d="M112.11,428.39a1.14,1.14,0,0,1-.11.5,1.5,1.5,0,0,1-.29.41,1.35,1.35,0,0,1-.42.29,1.29,1.29,0,0,1-1,0,1.34,1.34,0,0,1-.42-.29,1.38,1.38,0,0,1-.29-.41,1.21,1.21,0,0,1-.1-.5,1.35,1.35,0,0,1,.39-.94,1.35,1.35,0,0,1,.42-.29,1.29,1.29,0,0,1,1,0,1.37,1.37,0,0,1,.42.29,1.44,1.44,0,0,1,.29.43A1.24,1.24,0,0,1,112.11,428.39Zm-.63,5.15v14.92h-1.42V433.53Z"/><path class="cls-30" d="M122.44,433.29a7.17,7.17,0,0,1,2.87.55,5.87,5.87,0,0,1,2.14,1.55,6.88,6.88,0,0,1,1.33,2.42,11.19,11.19,0,0,1,0,6.34,6.88,6.88,0,0,1-1.33,2.42,5.79,5.79,0,0,1-2.14,1.54,7.91,7.91,0,0,1-5.75,0,5.85,5.85,0,0,1-2.14-1.54,6.82,6.82,0,0,1-1.33-2.42,11.19,11.19,0,0,1,0-6.34,6.82,6.82,0,0,1,1.33-2.42,5.94,5.94,0,0,1,2.14-1.55A7.18,7.18,0,0,1,122.44,433.29Zm0,14.24a5.54,5.54,0,0,0,2.33-.46,4.41,4.41,0,0,0,1.67-1.31,5.78,5.78,0,0,0,1-2.06,11.24,11.24,0,0,0,0-5.41,5.86,5.86,0,0,0-1-2.08,4.46,4.46,0,0,0-1.67-1.33,6.08,6.08,0,0,0-4.67,0,4.46,4.46,0,0,0-1.67,1.33,6,6,0,0,0-1,2.08,11,11,0,0,0,0,5.41,5.89,5.89,0,0,0,1,2.06,4.41,4.41,0,0,0,1.67,1.31A5.54,5.54,0,0,0,122.44,447.53Z"/><path class="cls-30" d="M133,448.46V433.53h.78a.41.41,0,0,1,.45.38l.13,2.25a8.37,8.37,0,0,1,2.38-2.08,5.92,5.92,0,0,1,3-.79,5.61,5.61,0,0,1,2.17.39,4,4,0,0,1,1.55,1.13,5,5,0,0,1,.93,1.77,8,8,0,0,1,.32,2.34v9.54h-1.42v-9.54a5.11,5.11,0,0,0-1-3.29,3.55,3.55,0,0,0-2.94-1.19,5.2,5.2,0,0,0-2.73.76,7.91,7.91,0,0,0-2.25,2.08v11.19Z"/><path class="cls-30" d="M165.59,448.46a.4.4,0,0,1-.43-.39l-.15-2.36a7.91,7.91,0,0,1-2.32,2.15,5.7,5.7,0,0,1-3,.79,5.2,5.2,0,0,1-4.29-1.91q-1.54-1.9-1.54-5.71a10.49,10.49,0,0,1,.43-3.05,7.23,7.23,0,0,1,1.26-2.46,6,6,0,0,1,2-1.64,6.19,6.19,0,0,1,2.79-.6,5.75,5.75,0,0,1,2.63.56,5.5,5.5,0,0,1,1.92,1.64v-8.85h1.42v21.83Zm-5.48-1a4.9,4.9,0,0,0,2.69-.76A7.63,7.63,0,0,0,165,444.6v-7.87a5.26,5.26,0,0,0-1.92-1.8,5.2,5.2,0,0,0-2.37-.52,5.26,5.26,0,0,0-2.31.48,4.56,4.56,0,0,0-1.66,1.36,6.12,6.12,0,0,0-1,2.1,10.07,10.07,0,0,0-.34,2.69,7.91,7.91,0,0,0,1.23,4.9A4.23,4.23,0,0,0,160.11,447.5Z"/><path class="cls-30" d="M177,433.29a6.17,6.17,0,0,1,2.33.43A5.25,5.25,0,0,1,181.2,435a5.85,5.85,0,0,1,1.23,2,8.13,8.13,0,0,1,.44,2.79.75.75,0,0,1-.1.45.37.37,0,0,1-.31.12H171.7v.29a10.13,10.13,0,0,0,.39,3,6,6,0,0,0,1.11,2.14,4.57,4.57,0,0,0,1.74,1.3,5.75,5.75,0,0,0,2.28.43,6.82,6.82,0,0,0,2-.25,7.27,7.27,0,0,0,1.39-.55,7.58,7.58,0,0,0,.89-.56,1,1,0,0,1,.48-.25.35.35,0,0,1,.3.15l.39.48a4.08,4.08,0,0,1-1,.84,6.88,6.88,0,0,1-1.32.67,9.69,9.69,0,0,1-1.56.44,8.63,8.63,0,0,1-1.67.17,7.09,7.09,0,0,1-2.79-.53,5.92,5.92,0,0,1-2.16-1.55,7.11,7.11,0,0,1-1.4-2.5,10.68,10.68,0,0,1-.49-3.38,9.24,9.24,0,0,1,.46-3,6.78,6.78,0,0,1,1.32-2.34,6,6,0,0,1,2.12-1.54A7,7,0,0,1,177,433.29Zm0,1.07a5.6,5.6,0,0,0-2.07.36,4.53,4.53,0,0,0-1.58,1,5.28,5.28,0,0,0-1.08,1.62,7.39,7.39,0,0,0-.55,2.12h9.83a6.56,6.56,0,0,0-.33-2.15,4.61,4.61,0,0,0-.93-1.61,4,4,0,0,0-1.44-1A4.74,4.74,0,0,0,177,434.36Z"/><path class="cls-30" d="M192.5,453.74V433.53h.78a.55.55,0,0,1,.32.08.37.37,0,0,1,.13.29l.13,2.31a7.92,7.92,0,0,1,2.32-2.14,5.68,5.68,0,0,1,3-.79,5.19,5.19,0,0,1,4.29,1.9q1.53,1.91,1.53,5.72a10.51,10.51,0,0,1-.43,3.05,7.32,7.32,0,0,1-1.25,2.46,5.92,5.92,0,0,1-2,1.64,6.17,6.17,0,0,1-2.78.6,5.84,5.84,0,0,1-2.64-.56,5.35,5.35,0,0,1-1.92-1.65v7.29Zm6.25-19.31a4.9,4.9,0,0,0-2.69.77,7.43,7.43,0,0,0-2.14,2.15v7.83a5.1,5.1,0,0,0,1.9,1.81,5.72,5.72,0,0,0,4.69,0,4.55,4.55,0,0,0,1.66-1.36,6.12,6.12,0,0,0,1-2.1,10.12,10.12,0,0,0,.34-2.69,8,8,0,0,0-1.22-4.9A4.21,4.21,0,0,0,198.76,434.43Z"/><path class="cls-30" d="M208.55,448.46V433.53h.75a.53.53,0,0,1,.37.1.53.53,0,0,1,.13.36l.12,3.15a7.1,7.1,0,0,1,1.92-2.84,4.39,4.39,0,0,1,3-1,5.09,5.09,0,0,1,1.25.14,4.77,4.77,0,0,1,1.08.41l-.2,1a.27.27,0,0,1-.3.24.82.82,0,0,1-.25-.06l-.41-.13a4.92,4.92,0,0,0-.61-.13,5,5,0,0,0-.82-.06,3.85,3.85,0,0,0-2.78,1,7.5,7.5,0,0,0-1.76,3v9.71Z"/><path class="cls-30" d="M226.15,433.29a7.17,7.17,0,0,1,2.87.55,5.87,5.87,0,0,1,2.14,1.55,6.88,6.88,0,0,1,1.33,2.42,11.19,11.19,0,0,1,0,6.34,6.88,6.88,0,0,1-1.33,2.42,5.79,5.79,0,0,1-2.14,1.54,7.91,7.91,0,0,1-5.75,0,5.85,5.85,0,0,1-2.14-1.54,6.82,6.82,0,0,1-1.33-2.42,11.19,11.19,0,0,1,0-6.34,6.82,6.82,0,0,1,1.33-2.42,5.94,5.94,0,0,1,2.14-1.55A7.18,7.18,0,0,1,226.15,433.29Zm0,14.24a5.54,5.54,0,0,0,2.33-.46,4.41,4.41,0,0,0,1.67-1.31,5.78,5.78,0,0,0,1-2.06,11.24,11.24,0,0,0,0-5.41,5.86,5.86,0,0,0-1-2.08,4.46,4.46,0,0,0-1.67-1.33,6.08,6.08,0,0,0-4.67,0,4.46,4.46,0,0,0-1.67,1.33,6,6,0,0,0-1,2.08,11,11,0,0,0,0,5.41,5.89,5.89,0,0,0,1,2.06,4.41,4.41,0,0,0,1.67,1.31A5.54,5.54,0,0,0,226.15,447.53Z"/><path class="cls-30" d="M240.76,448.7a3.19,3.19,0,0,1-2.36-.84,3.54,3.54,0,0,1-.84-2.6v-10.2h-2.14a.4.4,0,0,1-.27-.09.31.31,0,0,1-.1-.25v-.55l2.55-.18.36-5.34a.41.41,0,0,1,.11-.24.34.34,0,0,1,.26-.11H239V434h4.7v1.07H239v10.13a3.14,3.14,0,0,0,.16,1.06,2,2,0,0,0,.43.73,1.69,1.69,0,0,0,.65.42,2.36,2.36,0,0,0,.81.14,2.47,2.47,0,0,0,.93-.16,3.81,3.81,0,0,0,.67-.34,4.27,4.27,0,0,0,.46-.34.51.51,0,0,1,.29-.16.33.33,0,0,1,.24.15l.39.63a4.16,4.16,0,0,1-1.45,1A4.52,4.52,0,0,1,240.76,448.7Z"/><path class="cls-30" d="M253,433.29a6.17,6.17,0,0,1,2.33.43,5.25,5.25,0,0,1,1.86,1.27,5.85,5.85,0,0,1,1.23,2,8.13,8.13,0,0,1,.44,2.79.75.75,0,0,1-.1.45.37.37,0,0,1-.31.12H247.7v.29a10.13,10.13,0,0,0,.39,3,6,6,0,0,0,1.11,2.14,4.57,4.57,0,0,0,1.74,1.3,5.75,5.75,0,0,0,2.28.43,6.82,6.82,0,0,0,2-.25,7.27,7.27,0,0,0,1.39-.55,7.58,7.58,0,0,0,.89-.56,1,1,0,0,1,.48-.25.35.35,0,0,1,.3.15l.39.48a4.08,4.08,0,0,1-1,.84,6.88,6.88,0,0,1-1.32.67,9.69,9.69,0,0,1-1.56.44,8.63,8.63,0,0,1-1.67.17,7.09,7.09,0,0,1-2.79-.53,5.92,5.92,0,0,1-2.16-1.55,7.11,7.11,0,0,1-1.4-2.5,10.68,10.68,0,0,1-.49-3.38,9.24,9.24,0,0,1,.46-3,6.78,6.78,0,0,1,1.32-2.34,6,6,0,0,1,2.12-1.54A7,7,0,0,1,253,433.29Zm0,1.07a5.6,5.6,0,0,0-2.07.36,4.53,4.53,0,0,0-1.58,1,5.28,5.28,0,0,0-1.08,1.62,7.39,7.39,0,0,0-.55,2.12h9.83a6.56,6.56,0,0,0-.33-2.15,4.61,4.61,0,0,0-.93-1.61,4,4,0,0,0-1.44-1A4.74,4.74,0,0,0,253,434.36Z"/><path class="cls-30" d="M272.54,435.53l-.14.13a.3.3,0,0,1-.19.05.78.78,0,0,1-.41-.2,5.44,5.44,0,0,0-.7-.44,6,6,0,0,0-1.09-.44,6.08,6.08,0,0,0-3.87.26,4.54,4.54,0,0,0-1.68,1.31,6,6,0,0,0-1,2.07,10.67,10.67,0,0,0,0,5.52,6,6,0,0,0,1,2,4.43,4.43,0,0,0,1.64,1.27,5.1,5.1,0,0,0,2.13.44,5.52,5.52,0,0,0,1.81-.25,5.87,5.87,0,0,0,1.2-.56,5.3,5.3,0,0,0,.75-.55.78.78,0,0,1,.44-.25.34.34,0,0,1,.3.15l.39.48a4.36,4.36,0,0,1-.87.84,5.89,5.89,0,0,1-1.18.67,7.22,7.22,0,0,1-1.43.44,8,8,0,0,1-1.61.16,6.4,6.4,0,0,1-2.6-.52,5.65,5.65,0,0,1-2-1.5,7,7,0,0,1-1.32-2.41,11.2,11.2,0,0,1,0-6.36,7,7,0,0,1,1.31-2.43,5.89,5.89,0,0,1,2.12-1.58,7,7,0,0,1,2.87-.56,6.77,6.77,0,0,1,2.59.46,6.36,6.36,0,0,1,2,1.26Z"/><path class="cls-30" d="M280.43,448.7a3.19,3.19,0,0,1-2.36-.84,3.54,3.54,0,0,1-.84-2.6v-10.2h-2.14a.4.4,0,0,1-.27-.09.31.31,0,0,1-.1-.25v-.55l2.55-.18.36-5.34a.41.41,0,0,1,.11-.24.34.34,0,0,1,.26-.11h.67V434h4.7v1.07h-4.7v10.13a3.14,3.14,0,0,0,.16,1.06,2,2,0,0,0,.43.73,1.69,1.69,0,0,0,.65.42,2.36,2.36,0,0,0,.81.14,2.47,2.47,0,0,0,.93-.16,3.81,3.81,0,0,0,.67-.34,4.27,4.27,0,0,0,.46-.34.51.51,0,0,1,.29-.16.33.33,0,0,1,.24.15l.39.63a4.16,4.16,0,0,1-1.45,1A4.52,4.52,0,0,1,280.43,448.7Z"/><path class="cls-30" d="M289.54,428.39a1.15,1.15,0,0,1-.11.5,1.51,1.51,0,0,1-.29.41,1.34,1.34,0,0,1-.42.29,1.29,1.29,0,0,1-1,0,1.37,1.37,0,0,1-.7-.7,1.2,1.2,0,0,1-.11-.5,1.36,1.36,0,0,1,.39-.94,1.37,1.37,0,0,1,.42-.29,1.29,1.29,0,0,1,1,0,1.36,1.36,0,0,1,.42.29,1.44,1.44,0,0,1,.29.43A1.25,1.25,0,0,1,289.54,428.39Zm-.63,5.15v14.92h-1.43V433.53Z"/><path class="cls-30" d="M299.87,433.29a7.17,7.17,0,0,1,2.87.55,5.87,5.87,0,0,1,2.14,1.55,6.88,6.88,0,0,1,1.33,2.42,11.19,11.19,0,0,1,0,6.34,6.88,6.88,0,0,1-1.33,2.42,5.79,5.79,0,0,1-2.14,1.54,7.91,7.91,0,0,1-5.75,0,5.85,5.85,0,0,1-2.14-1.54,6.82,6.82,0,0,1-1.33-2.42,11.19,11.19,0,0,1,0-6.34,6.82,6.82,0,0,1,1.33-2.42,5.94,5.94,0,0,1,2.14-1.55A7.18,7.18,0,0,1,299.87,433.29Zm0,14.24a5.54,5.54,0,0,0,2.33-.46,4.41,4.41,0,0,0,1.67-1.31,5.78,5.78,0,0,0,1-2.06,11.24,11.24,0,0,0,0-5.41,5.86,5.86,0,0,0-1-2.08,4.46,4.46,0,0,0-1.67-1.33,6.08,6.08,0,0,0-4.67,0,4.46,4.46,0,0,0-1.67,1.33,6,6,0,0,0-1,2.08,11,11,0,0,0,0,5.41,5.89,5.89,0,0,0,1,2.06,4.41,4.41,0,0,0,1.67,1.31A5.54,5.54,0,0,0,299.87,447.53Z"/><path class="cls-30" d="M310.42,448.46V433.53h.78a.41.41,0,0,1,.45.38l.13,2.25a8.37,8.37,0,0,1,2.38-2.08,5.92,5.92,0,0,1,3-.79,5.61,5.61,0,0,1,2.17.39,4,4,0,0,1,1.55,1.13,5,5,0,0,1,.93,1.77,8,8,0,0,1,.32,2.34v9.54h-1.42v-9.54a5.11,5.11,0,0,0-1-3.29,3.55,3.55,0,0,0-2.94-1.19,5.2,5.2,0,0,0-2.73.76,7.91,7.91,0,0,0-2.25,2.08v11.19Z"/><path class="cls-30" d="M343,448.46a.4.4,0,0,1-.43-.39l-.15-2.36a7.91,7.91,0,0,1-2.32,2.15,5.7,5.7,0,0,1-3,.79,5.2,5.2,0,0,1-4.29-1.91q-1.54-1.9-1.54-5.71a10.49,10.49,0,0,1,.43-3.05,7.23,7.23,0,0,1,1.26-2.46,6,6,0,0,1,2-1.64,6.19,6.19,0,0,1,2.79-.6,5.75,5.75,0,0,1,2.63.56,5.5,5.5,0,0,1,1.92,1.64v-8.85h1.42v21.83Zm-5.48-1a4.9,4.9,0,0,0,2.69-.76,7.63,7.63,0,0,0,2.15-2.13v-7.87a5.26,5.26,0,0,0-1.92-1.8,5.2,5.2,0,0,0-2.37-.52,5.26,5.26,0,0,0-2.31.48,4.56,4.56,0,0,0-1.66,1.36,6.12,6.12,0,0,0-1,2.1,10.07,10.07,0,0,0-.34,2.69,7.91,7.91,0,0,0,1.23,4.9A4.23,4.23,0,0,0,337.54,447.5Z"/><path class="cls-30" d="M354.44,433.29a6.17,6.17,0,0,1,2.33.43,5.25,5.25,0,0,1,1.86,1.27,5.85,5.85,0,0,1,1.23,2,8.13,8.13,0,0,1,.44,2.79.75.75,0,0,1-.1.45.37.37,0,0,1-.31.12H349.13v.29a10.13,10.13,0,0,0,.39,3,6,6,0,0,0,1.11,2.14,4.57,4.57,0,0,0,1.74,1.3,5.75,5.75,0,0,0,2.28.43,6.82,6.82,0,0,0,2-.25,7.27,7.27,0,0,0,1.39-.55,7.58,7.58,0,0,0,.89-.56,1,1,0,0,1,.48-.25.35.35,0,0,1,.3.15l.39.48a4.08,4.08,0,0,1-1,.84,6.88,6.88,0,0,1-1.32.67,9.69,9.69,0,0,1-1.56.44,8.63,8.63,0,0,1-1.67.17,7.09,7.09,0,0,1-2.79-.53,5.92,5.92,0,0,1-2.16-1.55,7.11,7.11,0,0,1-1.4-2.5,10.68,10.68,0,0,1-.49-3.38,9.24,9.24,0,0,1,.46-3,6.78,6.78,0,0,1,1.32-2.34,6,6,0,0,1,2.12-1.54A7,7,0,0,1,354.44,433.29Zm0,1.07a5.6,5.6,0,0,0-2.07.36,4.53,4.53,0,0,0-1.58,1,5.28,5.28,0,0,0-1.08,1.62,7.39,7.39,0,0,0-.55,2.12H359a6.56,6.56,0,0,0-.33-2.15,4.61,4.61,0,0,0-.93-1.61,4,4,0,0,0-1.44-1A4.74,4.74,0,0,0,354.46,434.36Z"/><path class="cls-30" d="M372.37,435.39a.35.35,0,0,1-.33.21.8.8,0,0,1-.43-.19,7,7,0,0,0-.69-.42,5.61,5.61,0,0,0-1-.42,5.34,5.34,0,0,0-1.52-.19,4.49,4.49,0,0,0-1.48.23,3.64,3.64,0,0,0-1.14.62,2.81,2.81,0,0,0-.74.9,2.37,2.37,0,0,0-.26,1.08,1.85,1.85,0,0,0,.36,1.17,3.09,3.09,0,0,0,.95.79,7.29,7.29,0,0,0,1.33.57l1.52.48q.78.24,1.52.53a5.73,5.73,0,0,1,1.33.73,3.43,3.43,0,0,1,.95,1.07,3,3,0,0,1,.36,1.53,4.66,4.66,0,0,1-.35,1.82,4.13,4.13,0,0,1-1,1.46,4.88,4.88,0,0,1-1.64,1,6.37,6.37,0,0,1-2.22.36,6.7,6.7,0,0,1-2.71-.5,7.62,7.62,0,0,1-2-1.31l.34-.51a.58.58,0,0,1,.17-.18.46.46,0,0,1,.25-.06.83.83,0,0,1,.48.24,5.91,5.91,0,0,0,.74.52,6.18,6.18,0,0,0,1.14.52,5.12,5.12,0,0,0,1.69.24,4.86,4.86,0,0,0,1.67-.26,3.46,3.46,0,0,0,1.2-.71,3,3,0,0,0,.73-1.06,3.36,3.36,0,0,0,.25-1.28,2.06,2.06,0,0,0-.36-1.25,3.09,3.09,0,0,0-.95-.84,6.63,6.63,0,0,0-1.33-.58l-1.53-.48q-.79-.24-1.53-.52a5.56,5.56,0,0,1-1.33-.72,3.47,3.47,0,0,1-.94-1.06,3.06,3.06,0,0,1-.36-1.55,3.57,3.57,0,0,1,.34-1.53,3.91,3.91,0,0,1,1-1.29,4.82,4.82,0,0,1,1.55-.88,6,6,0,0,1,2.05-.33,6.89,6.89,0,0,1,2.42.4,5.91,5.91,0,0,1,1.94,1.21Z"/><path class="cls-30" d="M392.36,448.46a.51.51,0,0,1-.55-.42l-.21-1.91a15.6,15.6,0,0,1-1.22,1.08,7.39,7.39,0,0,1-1.27.81,6.23,6.23,0,0,1-1.42.5,7.63,7.63,0,0,1-1.68.17,4.93,4.93,0,0,1-1.48-.23,3.66,3.66,0,0,1-1.28-.69,3.39,3.39,0,0,1-.89-1.19,4.13,4.13,0,0,1-.34-1.75,3.11,3.11,0,0,1,.54-1.75,4.44,4.44,0,0,1,1.69-1.41,11.17,11.17,0,0,1,3-1,25.68,25.68,0,0,1,4.34-.42v-1.56a5,5,0,0,0-.89-3.19,3.18,3.18,0,0,0-2.65-1.12,5,5,0,0,0-1.84.3,6.56,6.56,0,0,0-1.28.66,8.22,8.22,0,0,0-.85.66.93.93,0,0,1-.56.3.48.48,0,0,1-.45-.27l-.25-.43a8.66,8.66,0,0,1,2.46-1.77,6.86,6.86,0,0,1,2.92-.6,5.34,5.34,0,0,1,2.1.38,3.87,3.87,0,0,1,1.49,1.1,4.78,4.78,0,0,1,.89,1.72,7.93,7.93,0,0,1,.3,2.26v9.72Zm-6-.79a6.4,6.4,0,0,0,1.6-.19,5.9,5.9,0,0,0,1.35-.53,6.61,6.61,0,0,0,1.16-.8q.54-.47,1.06-1v-3.88a26.62,26.62,0,0,0-3.67.32,10.61,10.61,0,0,0-2.54.71,3.72,3.72,0,0,0-1.47,1.07,2.29,2.29,0,0,0-.47,1.42,3.12,3.12,0,0,0,.25,1.3,2.49,2.49,0,0,0,1.6,1.42A3.82,3.82,0,0,0,386.36,447.66Z"/><path class="cls-30" d="M397.43,448.46V433.53h.78a.41.41,0,0,1,.45.38l.13,2.25a8.37,8.37,0,0,1,2.38-2.08,5.92,5.92,0,0,1,3-.79,5.61,5.61,0,0,1,2.17.39,4,4,0,0,1,1.55,1.13,5,5,0,0,1,.93,1.77,8,8,0,0,1,.32,2.34v9.54h-1.42v-9.54a5.11,5.11,0,0,0-1-3.29,3.55,3.55,0,0,0-2.94-1.19,5.2,5.2,0,0,0-2.73.76,7.91,7.91,0,0,0-2.25,2.08v11.19Z"/><path class="cls-30" d="M416.13,428.39a1.15,1.15,0,0,1-.11.5,1.51,1.51,0,0,1-.29.41,1.34,1.34,0,0,1-.42.29,1.29,1.29,0,0,1-1,0,1.37,1.37,0,0,1-.7-.7,1.2,1.2,0,0,1-.11-.5,1.36,1.36,0,0,1,.39-.94,1.37,1.37,0,0,1,.42-.29,1.29,1.29,0,0,1,1,0,1.36,1.36,0,0,1,.42.29,1.44,1.44,0,0,1,.29.43A1.25,1.25,0,0,1,416.13,428.39Zm-.63,5.15v14.92h-1.43V433.53Z"/><path class="cls-30" d="M420.78,448.46V433.53h.78a.41.41,0,0,1,.45.38l.13,2.16a9.4,9.4,0,0,1,.93-1.12,6.22,6.22,0,0,1,1.06-.88,4.92,4.92,0,0,1,1.2-.57,4.41,4.41,0,0,1,1.34-.2,3.57,3.57,0,0,1,2.61,1,5,5,0,0,1,1.32,2.65,5.18,5.18,0,0,1,.76-1.6,4.73,4.73,0,0,1,1.12-1.12,4.62,4.62,0,0,1,1.37-.66,5.35,5.35,0,0,1,1.52-.22,5.17,5.17,0,0,1,2,.37,4,4,0,0,1,1.5,1.09,4.93,4.93,0,0,1,1,1.77,8,8,0,0,1,.33,2.4v9.54h-1.42v-9.54a5.14,5.14,0,0,0-.95-3.34,3.3,3.3,0,0,0-2.7-1.15,4,4,0,0,0-1.49.29,3.63,3.63,0,0,0-1.26.85,4.07,4.07,0,0,0-.87,1.4,5.43,5.43,0,0,0-.32,2v9.54h-1.42v-9.54a5.47,5.47,0,0,0-.87-3.33,3,3,0,0,0-2.54-1.16,3.83,3.83,0,0,0-2.25.73,6.9,6.9,0,0,0-1.84,2v11.28Z"/><path class="cls-30" d="M454.17,448.46a.51.51,0,0,1-.55-.42l-.21-1.91a15.6,15.6,0,0,1-1.22,1.08,7.39,7.39,0,0,1-1.27.81,6.23,6.23,0,0,1-1.42.5,7.63,7.63,0,0,1-1.68.17,4.93,4.93,0,0,1-1.48-.23,3.66,3.66,0,0,1-1.28-.69,3.39,3.39,0,0,1-.89-1.19,4.13,4.13,0,0,1-.34-1.75,3.11,3.11,0,0,1,.54-1.75,4.44,4.44,0,0,1,1.69-1.41,11.17,11.17,0,0,1,3-1,25.68,25.68,0,0,1,4.34-.42v-1.56a5,5,0,0,0-.89-3.19,3.18,3.18,0,0,0-2.65-1.12,5,5,0,0,0-1.84.3,6.56,6.56,0,0,0-1.28.66,8.22,8.22,0,0,0-.85.66.93.93,0,0,1-.56.3.48.48,0,0,1-.45-.27l-.25-.43a8.66,8.66,0,0,1,2.46-1.77,6.86,6.86,0,0,1,2.92-.6,5.34,5.34,0,0,1,2.1.38,3.87,3.87,0,0,1,1.49,1.1,4.78,4.78,0,0,1,.89,1.72,7.93,7.93,0,0,1,.3,2.26v9.72Zm-6-.79a6.4,6.4,0,0,0,1.6-.19,5.9,5.9,0,0,0,1.35-.53,6.61,6.61,0,0,0,1.16-.8q.54-.47,1.06-1v-3.88a26.62,26.62,0,0,0-3.67.32,10.61,10.61,0,0,0-2.54.71,3.72,3.72,0,0,0-1.47,1.07,2.29,2.29,0,0,0-.47,1.42,3.12,3.12,0,0,0,.25,1.3,2.49,2.49,0,0,0,1.6,1.42A3.82,3.82,0,0,0,448.17,447.66Z"/><path class="cls-30" d="M460.29,433.53v9.54a5.1,5.1,0,0,0,1,3.29,3.55,3.55,0,0,0,2.93,1.19,5.29,5.29,0,0,0,2.72-.74,7.93,7.93,0,0,0,2.27-2.06V433.53h1.42v14.92h-.79q-.41,0-.43-.39l-.14-2.22a8.45,8.45,0,0,1-2.4,2.07,6,6,0,0,1-3,.78,5.59,5.59,0,0,1-2.18-.39,4,4,0,0,1-1.55-1.12,5,5,0,0,1-.93-1.77,8,8,0,0,1-.32-2.34v-9.54Z"/><path class="cls-30" d="M479,440.82l-5.19-7.29h1.36a.44.44,0,0,1,.31.09,1,1,0,0,1,.17.21l4.38,6.33a1.65,1.65,0,0,1,.25-.54l4.09-5.78a.77.77,0,0,1,.19-.22.41.41,0,0,1,.26-.09h1.32l-5.22,7.21,5.43,7.71H485a.43.43,0,0,1-.33-.13,1.54,1.54,0,0,1-.19-.25l-4.53-6.6a1.47,1.47,0,0,1-.23.51l-4.35,6.12a2,2,0,0,1-.22.24.39.39,0,0,1-.28.11h-1.27Z"/></svg>